<svg width="25" height="25" viewBox="0 0 25 25" fill="none" xmlns="http://www.w3.org/2000/svg">
<g clip-path="url(#clip0_809_2197)">
<path d="M12.6742 16L12.3348 16.3395L12.6742 16.6788L13.0137 16.3395L12.6742 16ZM13.1542 4.48C13.1542 4.21491 12.9393 4 12.6742 4C12.4092 4 12.1942 4.21491 12.1942 4.48H13.1542ZM6.57483 10.5795L12.3348 16.3395L13.0137 15.6605L7.25365 9.90054L6.57483 10.5795ZM13.0137 16.3395L18.7737 10.5795L18.0948 9.90054L12.3348 15.6605L13.0137 16.3395ZM13.1542 16V4.48H12.1942V16H13.1542Z" fill="white"/>
<path d="M5.95422 20.8003H19.3942" stroke="white" stroke-width="0.96"/>
</g>
<defs>
<clipPath id="clip0_809_2197">
<rect width="24" height="24" fill="white" transform="translate(0.674255 0.160156)"/>
</clipPath>
</defs>
</svg>
