<svg width="33" height="31" viewBox="0 0 33 31" fill="none" xmlns="http://www.w3.org/2000/svg">
<path d="M30.7419 8.47963C30.4266 7.2863 29.4952 6.35006 28.3116 6.03475C26.1626 5.45264 17.5667 5.45264 17.5667 5.45264C17.5667 5.45264 8.96597 5.45264 6.82186 6.0299C5.63822 6.35006 4.70684 7.2863 4.39153 8.47478C3.81427 10.6383 3.81427 15.1399 3.81427 15.1399C3.81427 15.1399 3.81427 19.6416 4.38668 21.8003C4.70199 22.9936 5.63337 23.9298 6.817 24.2452C8.96112 24.8224 17.5619 24.8224 17.5619 24.8224C17.5619 24.8224 26.1626 24.8224 28.3067 24.2452C29.4903 23.925 30.4217 22.9888 30.737 21.8003C31.3094 19.6416 31.3094 15.1399 31.3094 15.1399C31.3094 15.1399 31.3143 10.6383 30.7419 8.47963Z" fill="#78909C"/>
<path d="M14.7518 19.2295V11.0508L21.9409 15.1402L14.7518 19.2295Z" fill="#0F1A2A"/>
</svg>
