<svg width="31" height="31" viewBox="0 0 31 31" fill="none" xmlns="http://www.w3.org/2000/svg">
<path d="M15.5656 11.1821C13.426 11.1821 11.6073 13.0008 11.6073 15.1404C11.6073 17.28 13.426 19.0987 15.5656 19.0987C17.7052 19.0987 19.5239 17.28 19.5239 15.1404C19.5239 13.0008 17.7052 11.1821 15.5656 11.1821Z" fill="#78909C"/>
<path d="M20.6382 3.26514H10.5984C6.712 3.26514 3.68927 6.28787 3.68927 10.0663V20.106C3.68927 23.9924 6.712 27.0151 10.5984 27.0151H20.6382C24.4166 27.0151 27.4393 23.9924 27.4393 20.106V10.0663C27.4393 6.28787 24.4166 3.26514 20.6382 3.26514ZM15.5643 21.4015C12.1098 21.4015 9.41086 18.5946 9.41086 15.2481C9.41086 11.9015 12.1098 8.98673 15.5643 8.98673C19.0188 8.98673 21.7177 11.7935 21.7177 15.1401C21.7177 18.4867 19.0188 21.4015 15.5643 21.4015ZM21.9336 10.2821C21.1779 10.2821 20.5302 9.63446 20.5302 8.87878C20.5302 8.12309 21.1779 7.47537 21.9336 7.47537C22.6893 7.47537 23.337 8.12309 23.337 8.87878C23.337 9.63446 22.6893 10.2821 21.9336 10.2821Z" fill="#78909C"/>
</svg>
