<svg width="31" height="31" viewBox="0 0 31 31" fill="none" xmlns="http://www.w3.org/2000/svg">
<mask id="mask0_809_2359" style="mask-type:luminance" maskUnits="userSpaceOnUse" x="0" y="0" width="31" height="31">
<path d="M30.5643 0.140137H0.56427V30.1401H30.5643V0.140137Z" fill="white"/>
</mask>
<g mask="url(#mask0_809_2359)">
<path d="M9.34317 10.3887H4.65021V25.39H9.34317V10.3887Z" fill="#78909C"/>
<path d="M26.2525 17.3472V25.3903H21.5596V17.8915C21.5596 15.9196 21.3228 14.3223 19.0258 14.3223C16.7288 14.3223 16.4955 15.9231 16.4955 17.8915V25.3903H11.8026V10.3891H16.4955V12.5341C17.2023 10.9757 18.5381 9.98975 21.0083 9.98975C21.1991 9.98975 21.3829 9.99681 21.5596 10.0074C25.7967 10.2583 26.2525 13.4459 26.2525 17.3472Z" fill="#78909C"/>
<path d="M9.68927 5.57587C9.68927 4.09165 8.48422 2.89014 7 2.89014C5.51578 2.89014 4.31427 4.09165 4.31427 5.57587C4.31427 7.06009 5.51578 8.2616 7 8.2616C8.48422 8.2616 9.68573 7.06009 9.68573 5.57587H9.68927Z" fill="#78909C"/>
</g>
</svg>
