<svg width="21" height="20" viewBox="0 0 21 20" fill="none" xmlns="http://www.w3.org/2000/svg">
<path d="M10.5643 0C5.05027 0 0.56427 4.486 0.56427 10C0.56427 15.514 5.05027 20 10.5643 20C16.0783 20 20.5643 15.514 20.5643 10C20.5643 4.486 16.0783 0 10.5643 0ZM18.4953 9H15.7313C15.6079 6.81124 14.9956 4.67797 13.9393 2.757C15.1635 3.32905 16.2232 4.2014 17.0197 5.29291C17.8163 6.38442 18.3239 7.65965 18.4953 9ZM11.0943 2.027C12.1293 3.391 13.5213 5.807 13.7213 9H7.59427C7.73327 6.404 8.58827 3.972 10.0453 2.026C10.2173 2.016 10.3893 2 10.5643 2C10.7433 2 10.9183 2.016 11.0943 2.027ZM7.25227 2.727C6.26827 4.618 5.70027 6.762 5.59427 9H2.63327C2.80604 7.64784 3.3209 6.3621 4.12916 5.26442C4.93742 4.16673 6.01235 3.29339 7.25227 2.727ZM2.63327 11H5.60727C5.74327 13.379 6.27227 15.478 7.16327 17.23C5.94546 16.6559 4.892 15.7842 4.10023 14.6953C3.30846 13.6064 2.80393 12.3355 2.63327 11ZM10.0143 17.973C8.61327 16.275 7.78627 13.896 7.60527 11H13.7183C13.5103 13.773 12.6013 16.196 11.1153 17.972C10.9333 17.984 10.7513 18 10.5643 18C10.3783 18 10.1973 17.984 10.0143 17.973ZM14.0253 17.201C14.9803 15.407 15.5633 13.3 15.7163 11H18.4943C18.3255 12.3243 17.8283 13.5853 17.0477 14.6684C16.2672 15.7514 15.2282 16.622 14.0253 17.201Z" fill="black"/>
</svg>
